<svg width="414" height="361" viewBox="0 0 414 361" fill="none" xmlns="http://www.w3.org/2000/svg">
<rect width="414" height="361" fill="#007CC4"/>
<path d="M157.312 151.595C153.893 156.608 148.793 159.115 142.012 159.116C139.19 159.208 136.383 158.682 133.786 157.575C131.189 156.468 128.865 154.806 126.978 152.706C123.332 148.31 121.337 142.778 121.337 137.067C121.337 131.355 123.332 125.823 126.978 121.427C130.852 117.154 136.008 115.017 142.446 115.017C148.884 115.017 153.838 117.552 157.309 122.623V115.701H163.719V158.431H157.309L157.312 151.595ZM142.876 153.304C144.943 153.396 147.004 153.013 148.899 152.183C150.794 151.353 152.474 150.099 153.808 148.518C156.303 145.222 157.652 141.202 157.652 137.068C157.652 132.934 156.303 128.914 153.808 125.618C152.474 124.037 150.794 122.783 148.899 121.953C147.004 121.123 144.943 120.74 142.876 120.832C140.786 120.761 138.706 121.153 136.785 121.981C134.864 122.808 133.15 124.05 131.766 125.618C129.167 128.868 127.751 132.906 127.751 137.068C127.751 141.23 129.167 145.268 131.766 148.518C133.15 150.086 134.864 151.328 136.785 152.156C138.706 152.983 140.786 153.375 142.876 153.304V153.304Z" fill="white"/>
<path d="M192.607 163.047C193.227 162.928 193.856 162.871 194.487 162.876C196.483 162.822 198.439 163.439 200.042 164.628C200.791 165.184 201.392 165.915 201.794 166.756C202.196 167.597 202.387 168.524 202.349 169.456C202.349 172.817 200.326 174.984 196.281 175.956C194.865 176.27 193.416 176.413 191.965 176.383C190.174 176.372 188.403 176.009 186.752 175.315C185.225 174.725 183.798 173.904 182.522 172.879L184.146 170.059C186.251 171.631 188.785 172.525 191.41 172.623C194.543 172.623 196.11 171.597 196.11 169.546C196.1 169.11 195.965 168.686 195.724 168.323C195.482 167.96 195.142 167.673 194.743 167.495C193.816 166.978 192.77 166.713 191.709 166.726C190.654 166.718 189.604 166.862 188.59 167.153L186.795 165.7L191.068 158.949C188.41 158.819 185.809 158.127 183.438 156.919C181.066 155.711 178.977 154.015 177.309 151.941C173.887 147.562 172.078 142.137 172.187 136.58C172.296 131.023 174.317 125.673 177.909 121.432C179.845 119.322 182.215 117.657 184.857 116.55C187.498 115.444 190.347 114.922 193.209 115.022C197.848 114.907 202.402 116.285 206.199 118.953C209.639 121.467 212.161 125.039 213.378 129.123H206.452C205.524 126.725 203.921 124.648 201.837 123.141C199.731 121.603 197.181 120.793 194.573 120.834C192.187 120.767 189.814 121.204 187.608 122.116C185.766 122.922 184.119 124.116 182.78 125.616C180.077 128.819 178.594 132.875 178.594 137.066C178.594 141.257 180.077 145.313 182.78 148.516C184.192 150.095 185.936 151.342 187.886 152.17C189.836 152.997 191.944 153.384 194.061 153.302C196.835 153.394 199.563 152.584 201.838 150.994C203.922 149.487 205.525 147.41 206.453 145.012H213.372C212.222 148.876 209.891 152.283 206.706 154.755C203.288 157.381 199.135 158.875 194.827 159.028L192.607 163.047Z" fill="white"/>
<path d="M221.322 115.701H227.739V158.431H221.322V115.701Z" fill="white"/>
<path d="M257.642 132.537L276.102 158.432H268.239L253.284 136.981L245.251 144.929V158.429H238.841V98.609H245.251V136.895L265.851 115.701H274.824L257.642 132.537Z" fill="white"/>
<path d="M172.289 192.808C168.669 189.661 163.993 187.999 159.199 188.157C152.27 188.157 146.622 190.507 142.406 195.165C138.466 199.888 136.309 205.844 136.31 211.995C136.311 218.145 138.471 224.101 142.413 228.822C144.47 231.104 146.998 232.912 149.823 234.12C152.647 235.327 155.701 235.906 158.772 235.816C164.256 235.816 168.785 234.271 172.289 231.216V235.133H182.259V188.846H172.289V192.808ZM169.205 201.689C171.428 204.663 172.63 208.276 172.63 211.989C172.63 215.702 171.428 219.315 169.205 222.289C168.037 223.673 166.565 224.769 164.903 225.49C163.242 226.211 161.436 226.538 159.627 226.446C157.788 226.518 155.957 226.179 154.266 225.455C152.574 224.73 151.066 223.638 149.849 222.258C147.538 219.334 146.281 215.716 146.281 211.988C146.281 208.261 147.538 204.643 149.849 201.719C151.065 200.337 152.573 199.245 154.265 198.52C155.956 197.796 157.788 197.458 159.627 197.531C161.436 197.436 163.243 197.762 164.905 198.484C166.567 199.205 168.039 200.302 169.205 201.689Z" fill="white"/>
<path d="M207.241 220.825L194.681 188.84H183.71L201.872 232.732L193.29 252.052H204.132L230.939 188.84H220.035L207.241 220.825Z" fill="white"/>
<path d="M261.716 189.475C257.122 187.687 250.051 187.424 245.158 190.575C244.137 191.231 243.165 191.962 242.252 192.761V188.844H232.282V235.135H242.252V208.739C242.19 207.237 242.444 205.74 242.998 204.342C243.551 202.945 244.391 201.679 245.464 200.627C246.509 199.608 247.747 198.808 249.106 198.276C250.465 197.744 251.917 197.489 253.376 197.527C254.739 197.467 256.099 197.699 257.366 198.207C258.632 198.716 259.775 199.489 260.718 200.475C262.634 202.483 263.56 205.161 263.56 208.651V235.13H273.53V208.483C273.53 202.315 271.572 197.259 267.73 193.483C266.041 191.725 263.989 190.357 261.716 189.475Z" fill="white"/>
<path d="M313.983 192.808C310.363 189.662 305.687 188 300.893 188.157C293.964 188.157 288.316 190.507 284.093 195.165C280.156 199.89 278.001 205.846 278.004 211.996C278.006 218.146 280.166 224.1 284.107 228.822C286.164 231.104 288.692 232.912 291.517 234.12C294.341 235.327 297.395 235.906 300.466 235.816C305.95 235.816 310.472 234.271 313.983 231.216V235.133H323.953V188.846H313.983V192.808ZM310.899 201.689C313.119 204.665 314.318 208.278 314.316 211.99C314.315 215.703 313.114 219.315 310.892 222.289C309.725 223.672 308.253 224.767 306.593 225.487C304.932 226.208 303.128 226.534 301.32 226.441C299.481 226.514 297.649 226.176 295.958 225.452C294.266 224.727 292.758 223.634 291.542 222.253C289.232 219.329 287.975 215.711 287.974 211.985C287.973 208.258 289.227 204.64 291.535 201.714C292.752 200.332 294.261 199.239 295.954 198.514C297.647 197.79 299.48 197.452 301.32 197.526C303.13 197.432 304.937 197.759 306.599 198.482C308.261 199.204 309.733 200.302 310.899 201.689Z" fill="white"/>
<path d="M354.419 207.66L373.619 188.841H359.534L341.473 207.427V171.749H331.5V235.132H341.473V220.593L347.473 214.654L361.751 235.132H373.998L354.419 207.66Z" fill="white"/>
<path d="M123.097 158.233C122.826 157.955 122.506 157.756 122.242 157.464C117.335 151.966 114.883 145.166 114.885 137.064C114.887 128.962 117.339 122.162 122.242 116.664C122.684 116.18 123.211 115.831 123.673 115.389H85.567C51.504 116.229 24 142.989 24 175.425C24 206.996 49.916 232.783 82.7 234.92V162.501C82.6984 161.428 83.1227 160.398 83.8797 159.637C84.6367 158.876 85.6646 158.446 86.738 158.442L123.097 158.233Z" fill="#4EA13B"/>
<path d="M116.376 199.71L142.576 174.998H128.334L99.362 202.145V164.984H91.35C90.8518 164.978 90.3704 165.164 90.0057 165.503C89.6411 165.843 89.4213 166.31 89.392 166.807V166.985L89.406 167.199L89.392 167.213V235.133H99.362V215.577L109.062 206.518L130.534 235.133H143.026L116.376 199.71Z" fill="white"/>
</svg>

